<svg id="Layer_1" data-name="Layer 1" xmlns="http://www.w3.org/2000/svg" viewBox="0 0 16 16"><defs><style>.cls-1{fill:#666;}.cls-2{fill:gray;}.cls-3{fill:#b3b3b3;}.cls-4{fill:none;}.cls-5{fill:#e6e6e6;}</style></defs><title>pluginIcon_dark</title><path class="cls-1" d="M11.73,9.83l0-2.63H15V15H9V9.83ZM9,9.28h2.19V7.2Z"/><path class="cls-2" d="M10.73,8.83l0-2.63H14V14H8V8.83ZM8,8.28h2.19V6.2Z"/><path class="cls-3" d="M9.73,7.83l0-2.63H13V13H7V7.83ZM7,7.28H9.19V5.2Z"/><polygon class="cls-4" points="2.33 5.46 6.97 5.46 6.93 0.98 6.04 0.98 2.33 4.52 2.33 5.46"/><path class="cls-5" d="M4.92,3.34V5.83H4.2V5.18a1.47,1.47,0,0,1-.58.58A1.84,1.84,0,0,1,2.77,6,1.5,1.5,0,0,1,1.7,5.57a1.35,1.35,0,0,1-.4-1,1.33,1.33,0,0,1,.49-1.11,2.35,2.35,0,0,1,1.44-.38h1V3a1,1,0,0,0-.27-.76A1.19,1.19,0,0,0,3.1,2a2.71,2.71,0,0,0-.74.11,3.15,3.15,0,0,0-.74.31V1.66a5.47,5.47,0,0,1,.77-.23,3.51,3.51,0,0,1,.71-.08A2.58,2.58,0,0,1,4,1.51,1.55,1.55,0,0,1,4.65,2a1.16,1.16,0,0,1,.21.49A4.48,4.48,0,0,1,4.92,3.34Zm-1.39.29H3.29a1.73,1.73,0,0,0-1,.22A.76.76,0,0,0,2,4.51a.8.8,0,0,0,.24.62,1,1,0,0,0,.66.21,1.14,1.14,0,0,0,.94-.41A1.76,1.76,0,0,0,4.2,3.79V3.63Z"/><path class="cls-5" d="M6,2.08V1.37L10.07,3v.65L6,5.28V4.57L9.27,3.33Z"/></svg>